<svg xmlns="http://www.w3.org/2000/svg" xmlns:xlink="http://www.w3.org/1999/xlink" height="800" width="1200" viewBox="-20.4882 -28.939 177.5644 173.634"><defs><radialGradient id="a" gradientTransform="scale(-1 -.4407) rotate(45 67.474 -149.835)" r="84.775" fy="17.099" fx="57.569" cy="17.099" cx="57.569"><stop offset="0%" stop-color="#F68C11"/><stop offset="95%" stop-color="#B4131D"/><stop offset="100%" stop-color="#B4131D"/></radialGradient><radialGradient id="b" gradientTransform="matrix(-.2354 -.7541 .2703 -.65676 15.649 17.458)" r="91.682" fy="4.34" fx="13.617" cy="4.34" cx="13.617"><stop offset="0%" stop-color="#F68C11"/><stop offset="95%" stop-color="#B4131D"/><stop offset="100%" stop-color="#B4131D"/></radialGradient><radialGradient id="c" gradientTransform="scale(-.59769 -1) rotate(74.976 7.797 -23.385)" r="232.309" fy="9.444" fx="13.42" cy="9.444" cx="13.42"><stop offset="0%" stop-color="#F68C11"/><stop offset="95%" stop-color="#B4131D"/><stop offset="100%" stop-color="#B4131D"/></radialGradient><radialGradient id="d" gradientTransform="matrix(-.93408 -.3506 .35706 -.9172 295.008 105.54)" r="168.652" fy="26.269" fx="157.381" cy="26.269" cx="157.381"><stop offset="0%" stop-color="#F68C11"/><stop offset="95%" stop-color="#B4131D"/><stop offset="100%" stop-color="#B4131D"/></radialGradient><radialGradient id="e" gradientTransform="scale(-1 -.59093) rotate(36.279 52.765 -251.442)" r="101.77" fy="12.842" fx="80.92" cy="12.842" cx="80.92"><stop offset="0%" stop-color="#F68C11"/><stop offset="95%" stop-color="#B4131D"/><stop offset="100%" stop-color="#B4131D"/></radialGradient><radialGradient id="f" gradientTransform="scale(-.75041 -1) rotate(75.686 -1.009 -35.34)" r="243.551" fy="2.258" fx="23.54" cy="2.258" cx="23.54"><stop offset="0%" stop-color="#F68C11"/><stop offset="95%" stop-color="#B4131D"/><stop offset="100%" stop-color="#B4131D"/></radialGradient><radialGradient id="g" gradientTransform="matrix(-.84291 -.26612 .53805 -.4169 153.998 52.758)" r="111.906" fy="20.42" fx="89.524" cy="20.42" cx="89.524"><stop offset="0%" stop-color="#F68C11"/><stop offset="95%" stop-color="#B4131D"/><stop offset="100%" stop-color="#B4131D"/></radialGradient><radialGradient id="h" r="427.588" fy="408.799" fx="36.813" cy="408.799" cx="36.813"><stop offset="0%" stop-color="#F68C11"/><stop offset="95%" stop-color="#B4131D"/><stop offset="100%" stop-color="#B4131D"/></radialGradient><radialGradient id="i" r="615.602" fy="432.049" fx="107.572" cy="432.049" cx="107.572"><stop offset="0%" stop-color="#F68C11"/><stop offset="95%" stop-color="#B4131D"/><stop offset="100%" stop-color="#B4131D"/></radialGradient><radialGradient id="j" r="341.693" fy="134.955" fx="68.019" cy="134.955" cx="68.019"><stop offset="0%" stop-color="#F68C11"/><stop offset="95%" stop-color="#B4131D"/><stop offset="100%" stop-color="#B4131D"/></radialGradient><radialGradient id="k" r="130.511" fy="96.374" fx="39.455" cy="96.374" cx="39.455"><stop offset="0%" stop-color="#F68C11"/><stop offset="95%" stop-color="#B4131D"/><stop offset="100%" stop-color="#B4131D"/></radialGradient><radialGradient id="l" r="249.127" fy="165.836" fx="38.385" cy="165.836" cx="38.385"><stop offset="0%" stop-color="#F68C11"/><stop offset="95%" stop-color="#B4131D"/><stop offset="100%" stop-color="#B4131D"/></radialGradient><radialGradient id="m" gradientTransform="scale(-.69016 -1) rotate(45 83.814 -9.928)" r="44.671" fy="35.029" fx="3.359" cy="35.029" cx="3.359"><stop offset="0%" stop-color="#F68C11"/><stop offset="95%" stop-color="#B4131D"/><stop offset="100%" stop-color="#B4131D"/></radialGradient><radialGradient id="n" r="130.178" fy="110.24" fx="8.526" cy="110.24" cx="8.526"><stop offset="0%" stop-color="#F68C11"/><stop offset="95%" stop-color="#B4131D"/><stop offset="100%" stop-color="#B4131D"/></radialGradient><radialGradient id="o" r="216.161" fy="198.865" fx="38.858" cy="198.865" cx="38.858"><stop offset="0%" stop-color="#F68C11"/><stop offset="95%" stop-color="#B4131D"/><stop offset="100%" stop-color="#B4131D"/></radialGradient><radialGradient id="p" r="638.967" fy="504.977" fx="137.124" cy="504.977" cx="137.124"><stop offset="0%" stop-color="#F68C11"/><stop offset="95%" stop-color="#B4131D"/><stop offset="100%" stop-color="#B4131D"/></radialGradient><radialGradient id="q" r="252.408" fy="219.375" fx="33.947" cy="219.375" cx="33.947"><stop offset="0%" stop-color="#F68C11"/><stop offset="95%" stop-color="#B4131D"/><stop offset="100%" stop-color="#B4131D"/></radialGradient><radialGradient id="r" r="160.396" fy="134.152" fx="19.792" cy="134.152" cx="19.792"><stop offset="0%" stop-color="#F68C11"/><stop offset="95%" stop-color="#B4131D"/><stop offset="100%" stop-color="#B4131D"/></radialGradient><radialGradient id="s" r="194.337" fy="157.431" fx="10.942" cy="157.431" cx="10.942"><stop offset="0%" stop-color="#F68C11"/><stop offset="95%" stop-color="#B4131D"/><stop offset="100%" stop-color="#B4131D"/></radialGradient><radialGradient id="t" gradientTransform="matrix(-.53806 -.7071 .53806 -.7071 -5.175 43.295)" r="29.915" fy="23.369" fx="4.811" cy="23.369" cx="4.811"><stop offset="0%" stop-color="#F68C11"/><stop offset="95%" stop-color="#B4131D"/><stop offset="100%" stop-color="#B4131D"/></radialGradient><radialGradient id="u" gradientTransform="scale(-.97161 -1) rotate(45 2.06 -2.055)" r=".992" fy=".858" fx=".839" cy=".858" cx=".839"><stop offset="0%" stop-color="#F68C11"/><stop offset="95%" stop-color="#B4131D"/><stop offset="100%" stop-color="#B4131D"/></radialGradient><radialGradient id="v" r=".008" fy=".5" fx=".5" cy=".5" cx=".5"><stop offset="0%" stop-color="#F68C11"/><stop offset="95%" stop-color="#B4131D"/><stop offset="100%" stop-color="#B4131D"/></radialGradient><radialGradient id="w" gradientTransform="matrix(-.56 -.81074 .77555 -.58541 -60.028 150.85)" r="102.873" fy="91.55" fx="7.035" cy="91.55" cx="7.035"><stop offset="0%" stop-color="#F68C11"/><stop offset="95%" stop-color="#B4131D"/><stop offset="100%" stop-color="#B4131D"/></radialGradient><radialGradient id="x" r="304.93" fy="304.036" fx="25.826" cy="304.036" cx="25.826"><stop offset="0%" stop-color="#F68C11"/><stop offset="95%" stop-color="#B4131D"/><stop offset="100%" stop-color="#B4131D"/></radialGradient><radialGradient id="y" r="453.059" fy="355.022" fx="102.506" cy="355.022" cx="102.506"><stop offset="0%" stop-color="#F68C11"/><stop offset="95%" stop-color="#B4131D"/><stop offset="100%" stop-color="#B4131D"/></radialGradient><radialGradient id="z" r="608.021" fy="488.503" fx="98.32" cy="488.503" cx="98.32"><stop offset="0%" stop-color="#F68C11"/><stop offset="95%" stop-color="#B4131D"/><stop offset="100%" stop-color="#B4131D"/></radialGradient><radialGradient id="A" r="174.937" fy="107.896" fx="47.773" cy="107.896" cx="47.773"><stop offset="0%" stop-color="#F68C11"/><stop offset="95%" stop-color="#B4131D"/><stop offset="100%" stop-color="#B4131D"/></radialGradient><radialGradient id="B" r="133.598" fy="126.547" fx="13.176" cy="126.547" cx="13.176"><stop offset="0%" stop-color="#F68C11"/><stop offset="95%" stop-color="#B4131D"/><stop offset="100%" stop-color="#B4131D"/></radialGradient><radialGradient id="C" r="277.182" fy="252.678" fx="33.58" cy="252.678" cx="33.58"><stop offset="0%" stop-color="#F68C11"/><stop offset="95%" stop-color="#B4131D"/><stop offset="100%" stop-color="#B4131D"/></radialGradient><radialGradient id="D" r="438.933" fy="426.97" fx="34.484" cy="426.97" cx="34.484"><stop offset="0%" stop-color="#F68C11"/><stop offset="95%" stop-color="#B4131D"/><stop offset="100%" stop-color="#B4131D"/></radialGradient><radialGradient id="E" r="217.811" fy="62.503" fx="-31.637" cy="62.503" cx="-31.637"><stop offset="0%" stop-color="#F68C11"/><stop offset="95%" stop-color="#B4131D"/><stop offset="100%" stop-color="#B4131D"/></radialGradient><radialGradient id="F" r="101.985" fy="80.279" fx="5.361" cy="80.279" cx="5.361"><stop offset="0%" stop-color="#F68C11"/><stop offset="95%" stop-color="#B4131D"/><stop offset="100%" stop-color="#B4131D"/></radialGradient><radialGradient id="G" gradientTransform="scale(-.8 -1) rotate(55.873 183.778 -33.353)" r="107.324" fy="98.497" fx="15.722" cy="98.497" cx="15.722"><stop offset="0%" stop-color="#F68C11"/><stop offset="95%" stop-color="#B4131D"/><stop offset="100%" stop-color="#B4131D"/></radialGradient><radialGradient gradientUnits="userSpaceOnUse" r="128.28" fy="25.901" fx="87.255" cy="25.901" cx="87.255" gradientTransform="scale(.66385 1.50635)" id="H" xlink:href="#a"/><radialGradient gradientUnits="userSpaceOnUse" r="142.909" fy="8.61" fx="21.263" cy="8.61" cx="21.263" gradientTransform="scale(1.7898 .55872)" id="I" xlink:href="#b"/><radialGradient gradientUnits="userSpaceOnUse" r="155.675" fy="9.015" fx="8.996" cy="9.015" cx="8.996" gradientTransform="scale(2.49673 .40052)" id="J" xlink:href="#c"/><radialGradient gradientUnits="userSpaceOnUse" r="105.228" fy="16.466" fx="99.887" cy="16.466" cx="99.887" gradientTransform="scale(.61265 1.63225)" id="K" xlink:href="#d"/><radialGradient gradientUnits="userSpaceOnUse" r="113.424" fy="14.364" fx="91.707" cy="14.364" cx="91.707" gradientTransform="scale(.6586 1.51837)" id="L" xlink:href="#e"/><radialGradient gradientUnits="userSpaceOnUse" r="142.019" fy="3.681" fx="13.737" cy="3.681" cx="13.737" gradientTransform="scale(2.2853 .43758)" id="M" xlink:href="#f"/><radialGradient gradientUnits="userSpaceOnUse" r="127.128" fy="23.267" fx="103.678" cy="23.267" cx="103.678" gradientTransform="scale(.56189 1.77972)" id="N" xlink:href="#g"/><radialGradient gradientUnits="userSpaceOnUse" gradientTransform="scale(1.60435 .6233)" r="103.632" fy="100.76" fx="9.555" cy="100.76" cx="9.555" id="O" xlink:href="#h"/><radialGradient gradientUnits="userSpaceOnUse" gradientTransform="scale(.84097 1.1891)" r="74.451" fy="53.13" fx="14.237" cy="53.13" cx="14.237" id="P" xlink:href="#i"/><radialGradient gradientUnits="userSpaceOnUse" gradientTransform="scale(.65298 1.53144)" r="100.231" fy="40.311" fx="21.629" cy="40.311" cx="21.629" id="Q" xlink:href="#j"/><radialGradient gradientUnits="userSpaceOnUse" gradientTransform="scale(.89707 1.11474)" r="86.171" fy="64.608" fx="27.188" cy="64.608" cx="27.188" id="R" xlink:href="#k"/><radialGradient gradientUnits="userSpaceOnUse" gradientTransform="scale(.93766 1.06649)" r="85.528" fy="57.909" fx="14.348" cy="57.909" cx="14.348" id="S" xlink:href="#l"/><radialGradient gradientUnits="userSpaceOnUse" r="102.512" fy="80.506" fx="7.803" cy="80.506" cx="7.803" gradientTransform="scale(1.20372 .83076)" id="T" xlink:href="#m"/><radialGradient gradientUnits="userSpaceOnUse" gradientTransform="scale(1.12192 .89133)" r="86.261" fy="74.19" fx="6.648" cy="74.19" cx="6.648" id="U" xlink:href="#n"/><radialGradient gradientUnits="userSpaceOnUse" gradientTransform="scale(1.1981 .83465)" r="87.942" fy="82.141" fx="16.688" cy="82.141" cx="16.688" id="V" xlink:href="#o"/><radialGradient gradientUnits="userSpaceOnUse" gradientTransform="scale(1.17176 .85342)" r="54.575" fy="44.484" fx="12.581" cy="44.484" cx="12.581" id="W" xlink:href="#p"/><radialGradient gradientUnits="userSpaceOnUse" gradientTransform="scale(1.20013 .83324)" r="87.98" fy="77.785" fx="12.77" cy="77.785" cx="12.77" id="X" xlink:href="#q"/><radialGradient gradientUnits="userSpaceOnUse" gradientTransform="scale(1.25603 .79616)" r="89.576" fy="76.238" fx="11.883" cy="76.238" cx="11.883" id="Y" xlink:href="#r"/><radialGradient gradientUnits="userSpaceOnUse" gradientTransform="scale(1.08088 .92517)" r="85.702" fy="70.509" fx="5.79" cy="70.509" cx="5.79" id="Z" xlink:href="#s"/><radialGradient gradientUnits="userSpaceOnUse" r="97.625" fy="76.362" fx="15.754" cy="76.362" cx="15.754" gradientTransform="scale(1.14638 .87231)" id="aa" xlink:href="#t"/><radialGradient gradientUnits="userSpaceOnUse" r="86.392" fy="74.746" fx="73.132" cy="74.746" cx="73.132" gradientTransform="scale(1.0145 .9857)" id="ab" xlink:href="#u"/><radialGradient gradientUnits="userSpaceOnUse" r="0" fy="1.165" fx="1.107" cy="1.165" cx="1.107" id="ac" xlink:href="#v"/><radialGradient gradientUnits="userSpaceOnUse" r="89.378" fy="80.88" fx="6.143" cy="80.88" cx="6.143" gradientTransform="scale(1.20321 .83111)" id="ad" xlink:href="#w"/><radialGradient gradientUnits="userSpaceOnUse" gradientTransform="scale(1.62113 .61685)" r="104.398" fy="105.881" fx="9.537" cy="105.881" cx="9.537" id="ae" xlink:href="#x"/><radialGradient gradientUnits="userSpaceOnUse" gradientTransform="scale(1.02955 .9713)" r="85.204" fy="67.803" fx="20.323" cy="67.803" cx="20.323" id="af" xlink:href="#y"/><radialGradient gradientUnits="userSpaceOnUse" gradientTransform="scale(1.0581 .9451)" r="85.039" fy="69.409" fx="14.739" cy="69.409" cx="14.739" id="ag" xlink:href="#z"/><radialGradient gradientUnits="userSpaceOnUse" gradientTransform="scale(.82896 1.20633)" r="88.115" fy="55.259" fx="25.401" cy="55.259" cx="25.401" id="ah" xlink:href="#A"/><radialGradient gradientUnits="userSpaceOnUse" gradientTransform="scale(1.38226 .72345)" r="93.948" fy="90.51" fx="9.303" cy="90.51" cx="9.303" id="ai" xlink:href="#B"/><radialGradient gradientUnits="userSpaceOnUse" gradientTransform="scale(1.29212 .77392)" r="90.625" fy="84.02" fx="11.761" cy="84.02" cx="11.761" id="aj" xlink:href="#C"/><radialGradient gradientUnits="userSpaceOnUse" gradientTransform="scale(1.58189 .63216)" r="102.636" fy="101.528" fx="8.759" cy="101.528" cx="8.759" id="ak" xlink:href="#D"/><radialGradient gradientUnits="userSpaceOnUse" gradientTransform="scale(.60135 1.66292)" r="106.49" fy="31.2" fx="-13.759" cy="31.2" cx="-13.759" id="al" xlink:href="#E"/><radialGradient gradientUnits="userSpaceOnUse" gradientTransform="scale(1.04162 .96004)" r="85.316" fy="68.217" fx="5.497" cy="68.217" cx="5.497" id="am" xlink:href="#F"/><radialGradient gradientUnits="userSpaceOnUse" r="98.783" fy="92.176" fx="14.477" cy="92.176" cx="14.477" gradientTransform="scale(1.35807 .73634)" id="an" xlink:href="#G"/></defs><g fill-rule="evenodd" fill="none"><g fill-rule="nonzero"><path d="M.22.293C.274.224.452.4.475.281.52.161.551.01.751.048c.124.03-.08.319-.072.47.008.162.043.57.123.502C.977.873.856.615 1.02.467c.127-.088.015.624.039.929.024.305.09.983-.029.921-.16-.049-.446-.032-.46-.141-.013-.147-.037-.283-.032-.419C.555 1.355.464.993.182.692.059.56.06.425.22.293" fill="url(#H)" transform="matrix(1 0 0 -1 40.244 51.169)"/><path d="M2.195 1.665a3.314 3.314 0 01-.987-.361.376.376 0 00-.423.01c-.122.08-.377.4-.366.275l-.015-.284c-.002-.11-.212.236-.287.15C.025 1.323.08 1.24.17 1.196c.218-.11.434-.217.7-.136.35.105.637.152.938.392.1.072.874.241 1.032.405.093.107-.179-.005-.262-.041-.126-.055-.25-.125-.383-.15" fill="url(#I)" transform="matrix(1 0 0 -1 60.11 16.969)"/><path d="M.866 1.09c.21.094.416.08.63.037.046-.01.096.008.175.017.107.02-.603.175-.991.196-.265.015-.757-.01-.659-.04.243-.077.433-.143.627-.197.07-.02.16-.042.218-.014" fill="url(#J)" transform="matrix(1 0 0 -1 75.71 15.769)"/><path d="M1.089.145c.032.003.073-.052.096.007l.23.637c.036.107-.168.208-.257.318-.047.07-.083.026-.073-.031.006-.076-.007-.16.02-.228.09-.223.102-.433-.048-.635C1.052.205.997.145 1.09.145" fill="url(#K)" transform="matrix(1 0 0 -1 36.977 39.036)"/><path d="M1.049.795c-.111.004.006-.427.01-.71-.005-.093.534.683.597 1.046.142.43.061.274 0 .6-.031.13-.558-.098-.536-.219a.594.594 0 01.25-.324c.101-.105-.233-.379-.321-.393" fill="url(#L)" transform="matrix(1 0 0 -1 37.777 33.969)"/><path d="M.69 1.184c-.197-.057-.411.08-.659-.072-.05-.041.146-.079.212-.077.297.002.636.021.932.041.057.004.111.07.168.108.04.028-.023.063-.034.093-.03.036-.336-.009-.62-.093" fill="url(#M)" transform="matrix(1 0 0 -1 66.777 13.769)"/><path d="M1.494.17c0-.011 0-.065.063-.043.106.052.206.133.19.26-.047.364-.13.906-.189 1.269-.02.287-.156.559-.266.47-.057-.05-.231-.09-.17-.146l.208-.167c.043-.05-.045-.105-.064-.15-.014-.086.27-.024.27-.282v.002l-.017-.367c-.016-.283-.02-.564-.025-.847" fill="url(#N)" transform="matrix(1 0 0 -1 39.91 53.569)"/><path d="M1.029 1.055c-.094-.019.321-.002.37.11.049.114-.278-.092-.37-.11" fill="url(#O)" transform="matrix(1 0 0 -1 82.844 74.969)"/><path d="M1.033 1.076c-.008-.05.04-.045.06.043.006.029.047.029.04.049-.02.053-.088-.01-.1-.092" fill="url(#P)" transform="matrix(1 0 0 -1 82.844 75.369)"/><path d="M1.095 1.333c-.003-.404.024-.173.081-.01.039.11.114.11.11.168-.01.128-.194.069-.191-.158" fill="url(#Q)" transform="matrix(1 0 0 -1 84.044 73.902)"/><path d="M1.23 1.773c-.022.015-.01.046-.04.046-.013-.002-.037.017-.037-.006a1.39 1.39 0 00-.092-.3l-.009-.025c-.068-.139-.067-.833.424.015.318.54.017.109-.247.27" fill="url(#R)" transform="matrix(1 0 0 -1 73.777 84.169)"/><path d="M1.277 1.253c-.075-.07-.155-.089-.177-.169-.03-.108.149.001.25.123.058.069.051.138.065.181.02.064-.055-.057-.138-.135" fill="url(#S)" transform="matrix(1 0 0 -1 84.71 73.902)"/><path d="M2.535 1.56c.273.319.501.619.199.332C1.83 1.12 1.098 1.096.156.148.002-.007.329.265.41.307c.54.268.987.082 1.697 1.048.074.109.264.014.427.205" fill="url(#T)" transform="matrix(1 0 0 -1 88.777 79.036)"/><path d="M1.841 1.596c-.264-.216-.37.292-.702-.512-.036-.072-.072-.161.438.179.2.133.344.404.264.333" fill="url(#U)" transform="matrix(1 0 0 -1 90.71 78.302)"/><path d="M1.137 1.315c-.132-.155-.068-.252-.068-.252.08-.143.59.238.447.268-.143.03-.297.078-.38-.016" fill="url(#V)" transform="matrix(1 0 0 -1 78.177 80.702)"/><path d="M1.097 1.156c.01.008.026.013.02.055-.007.04-.085-.004-.085-.004-.05-.022.054-.06.065-.051" fill="url(#W)" transform="matrix(1 0 0 -1 78.844 80.569)"/><path d="M1.47 1.319c-.048.005-.369.098-.343.062.026-.038.032-.044.048-.074.018-.03.089.04.079.013-.01-.027-.047-.08-.006-.163.089-.172.21.094.27.08.061-.016-.002.076-.049.082" fill="url(#X)" transform="matrix(1 0 0 -1 82.844 76.969)"/><path d="M1.675 1.27c.03.102.024.011.03-.046.005-.06.051.016.036.13-.016.117-.168.18-.266.113-.096-.07-.255-.262-.411-.38-.156-.119.58.078.611.182" fill="url(#Y)" transform="matrix(1 0 0 -1 83.244 72.836)"/><path d="M1.043 1.001c.167.128.327.262.476.408-.034-.02-.069-.048-.102-.062-.137-.144-.243-.086-.374-.346" fill="url(#Z)" transform="matrix(1 0 0 -1 91.91 77.369)"/><path d="M1.727 1.081c.233.12.574.211.687.36.056.075.065.062.121.199.068.167.129.217.168.285.04.068.06.123.157.198.098.074.56.228.441.098-.12-.129-.002-.141-.117-.257-.115-.117.133-.319.043-.385-.089-.067-.176-.103-.24-.143-.482-.299-.58-.077-1.583-.741-.034-.023-.075-.02-.118.037-.022.032.15.199.441.35zm-.069.435c-.056-.021-.123-.05-.198-.041-.075.009-.073.01-.112.029-.04.019.366.033.31.012zm-1.064-.29c-.18-.14-.33-.52-.369-.543C.186.66.038 1.016.067.609.095.203.849.48.724.285.663.192.644.247.689.153.732.061.834.08.81.123.781.165.76.368.827.353A.82.82 0 00.989.251c.08-.056.218-.003.267.076a.32.32 0 00.158.113c.02.01.043.017.063.025.077.031.184.128.27.212.081.079.25.204.424.302.175.096.564.173.742.238.197.074.28.11.451.126a.074.074 0 01.06.04c.048.092.013.25.21.317.197.064-.197.117-.101.252.095.137.175.37.024.32-.15-.05-.203.008-.11.03.092.022.168.037.2.047.034.01.133.122.157.21-.01.098-.102.148-.128.206-.031.075-.002.15-.07.166-.122.03-.125-.187-.084-.271a.337.337 0 00.03-.199c-.005-.034-.02-.074-.04-.077l-.033-.005c-.066-.01-.073.048.002.07.074.023.006.194-.005.158-.04-.138-.265-.26-.258-.094.005.168.142.004.183.207.008.047-.436.144-.373-.236.033-.201-.611-.353-.564-.396.048-.043.204-.113.12-.107-.083.006-.023-.334-.09-.286-.37.258-.28-.732-.576-.178-.034.063.12 0 .146.151.013.075-.055.075-.13.023-.078-.054-.143-.142-.236-.158-.092-.017.271.156.016.255-.256.099-.522-.13-.55-.16-.027-.03.038-.115-.047-.155-.083-.042-.51-.158-.56-.086-.027.041.016.04.073.104.056.062-.29-.112-.259-.226.03-.11.404.103.223-.038z" fill="url(#aa)" transform="matrix(1 0 0 -1 80.11 78.769)"/><path d="M87.295 51.043c-.027.036-.044.053-.058.08-.026.058.064.144.084.144.022-.002.034-.123.032-.146-.004-.06-.018-.118-.058-.078zm-.058.848c.019.046.039.248.059.153.037-.137.087-.265.02-.373a.328.328 0 00-.14-.119c-.096-.044.017.235.061.339zm-.109.129c-.03-.09-.528.572-.403.712.028.024.091-.072.207-.135.076-.042.21-.033.25-.097.058-.097-.023-.116-.062-.228-.015-.048.023-.233.008-.252zm-.607-19.477c.084-.048.118-.328.09-.526-.015-.101-.044-.181-.092-.197-.087-.053.001.123.001.247 0 .074.056.186.045.281-.017.15-.098.261-.044.195zm-.82 23.989c-.096.061-.208.33-.18.39.084.175.212.542.178.34-.003-.038-.082-.343-.082-.374-.005-.201.247-.47.084-.356zM74.857 14.32c-.584-.448-.405-.433-.647-.605-.241-.174-.228-.21-.514-.428-.286-.22-.49-.351-.639-.456-.148-.103-.121-.044.037.066.159.111.119.151.22.238.1.086.092.046.225.152.131.106.143.118.247.232.104.114.04.024.248.172.21.148.364.318.527.504.162.184.407.362.394.325-.012-.036.303.108-.098-.2zm-2.875 2.22c-.602-.29-.742-.624-1.052-.943-.31-.318-.349-.073-.116.123.232.197.04.215.004.321-.036.108.214-.096.307.043.458.537.677 1.117 1.193 1.413.516.295 2.434 2.603 2.234 2.303-.198-.297-1.968-2.97-2.57-3.26zm-.164-3.728c-.24-.605-1.834-1.413-1.86-1.343-.022.063.246.182.517.384.262.199.41.554.672.744.31.228.711.272.671.215zm-1.417.408c.151.116.086.004.273.044.186.043-.733-.47-.779-.47-.046 0 .355.311.506.426zm-.742-2.183c-.109-.082-.4-.3-.597-.441-1.706-1.23-3.3-2.099-4.895-2.992-.23-.13-.506-.303-.953-.25-.393.047-.565-.15-.448.113.117.264.75-.214 1.238.404.04.066-.14.072-.089.116.197.228.345.204.456.205.11.001-.35-.077-.328-.239.051-.373.39.14.583.171.192.033.12.152.098.208-.022.056 1.668 1.332 1.955.835.009-.051.413.164.537.418.125.252-.319-.04-.223.059.096.1 1.863 1.123 2.802 1.717.086.058-.068-.092-.084-.137-.016-.045.057-.104-.052-.187zM64.627 7.3c-.068-.085-.13-.001-.291.019-.162.018-.194-.046-.365-.134-.172-.088-.09-.009-.068.03a.43.43 0 00.245.173c.155.052.259-.012.36 0 .1.013.106.021.193.065.046.024-.006-.068-.074-.153zm-1.86-.205c-.536-.606-1.068-.574-1.317-.228-.135.148.35-.068.602.238.028.03-.05.002-.115 0-.618-.013-1.068.455-1.943-.32-.142-.118-1.202-.542-1.354-.409-.143.133.513.045 1.272 1.225.177.242 1.604.396 1.672.35.026-.018-.124-.16-.346-.234-.345-.114-.798-.178-.521-.236.482-.081 1.37.243 1.996 1.151-.054-.265.182.044.25.075.061.032.042.126.046.173.03.03.03-.225.207-.243.177-.017-.4-.121-.41-.262-.01-.143.072-.252.15-.243.235.028 1.026.9.978.503 0-.136.183.221.266.288.468.377.76-.09 1.264.333.332.285.69.544.914.644.225.1.43.117.635.232.203.116.677.576.376.2-.3-.375-3.17-1.753-4.928-2.775-.22-.128-.452-.178-.386-.202.095-.027.198-.303.334-.238.263.127.435.047.357-.022zm-1.942-.186c-.068-.053-.096-.098-.135-.022-.038.076.201.074.135.022zm-.1-.969c-.491-.61-.597.407-1.193-.059-.595-.465-.007.142.098.208.295.184.888.039 1.224.236.12.07.18-.004-.129-.385zm6.177 4.615c.173.16.832.33.722.258-.18-.112-.29-.208-.538-.401-.248-.192-.356-.017-.184.143zm1.039.529c.123.097.176.317.156.18 0-.42.692.517.823.11.04-.12-.703-.222-1.11-.449-.095-.054-.006.052.13.159zm-.422.893c-.09.247-.478-.296-.594-.256-.115.042-.504.278.02.408.523.131 1.315.555 1.198.336-.234-.497-.596-.566-.624-.488zm.992.084c-.06-.022-.076-.053-.09.004-.02.068.157.063.216.042.037-.007-.067-.022-.126-.046zm-2.313 4.507c-.227-.137 2.745 2.547 2.993 2.82.246.276.169.116.02-.06-.147-.176-.95-1.587-2.107-2.033-.233-.088-.679-.59-.906-.727zm-.27-.932c.035.13.149.119.2.084.05-.033-.236-.216-.2-.084zm3.531 4.084c.072.116.084.128.154.243.07.114.09-.042.029-.104-.061-.062-.254-.25-.183-.139zm-.004-7.136c.018-.053-.19-.136-.257-.164-.083-.032.217.268.257.164zm-.046 6.123c-.122-.207-.257-.522-.22-.272.059.396.512.734.392.468-.045-.1-.1-.072-.172-.196zm.502-.887c.125-.072-.093-.059-.136-.079-.038-.017-.08-.026-.124-.04-.063-.081-.192-.409-.188-.244-.03.374.167.523.448.363zm-.156 2.27c.052.08.18.397.194.305.015-.092.04-.186-.012-.246-.053-.06-.233-.141-.182-.06zm.503-1.769c.107.092.275.288.215.187-.06-.099-.077-.133-.153-.24-.076-.108-.168-.041-.062.053zm.224 2.376c.029.087.126.146.29.33.165.185.14.192.272.446.048.092-.019-.233 0-.301.02-.067-.097-.117-.174-.204-.078-.087-.175-.116-.252-.184-.078-.067-.165-.175-.136-.087zm.385-1.694c.052.058.156.282.11.08-.046-.203-.161-.138-.11-.08zm-.239-.3c.039.06.12.169.165.212.046.041.096-.059.03-.104-.066-.047-.233-.17-.195-.108zm.395-.876c-.107-.147-.419-.416-.325-.266.094.154.094.154.25.395.156.243.183.016.075-.13zm1.102 2.437c.054.075.037-.033-.011-.116-.048-.084-.073-.1-.159-.15-.086-.053.114.19.17.266zm.675-1.537c.169.117.224.177.142.074a27.835 27.835 0 01-.432-.552c-.133-.178.121.36.29.478zm.783 1.336c.206.028-.541-.543-.63-.643-.088-.1.01.56.63.643zm-.158 8.073c.071.083.01-.11.015-.153 0-.02-.117-.074-.153-.174-.04-.11-.002-.268-.04-.245-.178.083.058.436.178.572zm.546-6.96c.083.075.014-.02-.018-.1-.033-.079-.03-.14-.073-.195-.088-.108-.075.144.091.295zM57.737 6.155c-.173-.054-.329-.231-.526-.212 0 0-.151.037 0 .074.092.024.19.122.298.163.071.028.33-.001.228-.025zm-.22.172c-.077-.024-.188-.154-.216-.042-.017.07.156.064.217.042zm-.81-.087c-.043-.04-.526-.29-.859-.267-.022.002-.012.054.243.087.255.035.66.219.616.18zm8.881 11.34a.483.483 0 00-.175.023c-.043.021.13.03.19.03.058 0 .032-.053-.015-.053zm-.325-2.663c-.192-.19-.388-.43-.825-.317-.246.064.747.553 1.112.535.061-.003-.162-.094-.287-.218zm-.268-1.55c-.07.02.067.042.096.078.028.034-.027-.102-.096-.078zm-.764-.006c-.2-.126.012.082.026.175.046.345.449.236.682.345.045.023-.543-.416-.708-.52zm.446-.074c-.03-.074-.133-.323-.133-.023 0 .104.032-.013.103.068.07.084.06.028.03-.045zm-.333-2.111c-.045-.128-.125-.067-.077-.012.047.055.06.092.236.284.176.195-.113-.144-.159-.272zm-.199 1.79c.004.123.36.367.336.177-.006-.042-.074-.046-.1-.079-.097-.116-.24-.193-.236-.097zm.069-1.606c-.084-.115-.223-.168-.258-.117-.034.049-.078-.115-.076-.016 0 .1.023.062.091.074.069.012-.06.092.052.11.11.017.274.064.191-.051zm-1.005-.377c-.331-.115-.674-.311-.618-.172.055.134.046.202.137.29.091.087 1.068.339 1.151.347.082.01-.098-.177-.105-.297-.003-.056-.277-.068-.565-.168zm-.397 1.893c-.072-.007-.111.064-.025.124.048.035.104-.077.254.087.1.106.246.122.22.072a.522.522 0 00-.172-.176.633.633 0 00-.277-.107zm-.063.448c.105.085.057.315.168.39.076.05.088-.018.147-.045.08-.034.188-.05.13-.122-.16-.204-.55-.308-.445-.223zm-.453.203c.034.24.174.088.302.176s-.336-.415-.302-.176zm.326-.327c-.194-.168-1.13-.79-1.721-1.041-.12-.052-.226-.076-.36-.132-.075-.032-.15.045-.216-.036-.049-.06.05-.258-.234-.215-.11.016-.133-.085-.036-.132.096-.047.1-.064.098-.11-.004-.046-.159-.106-.15-.278.01-.172-.087.097-.23.088-.145-.008-.052.064-.063.156-.01.092-.216-.07-.223.052-.007.12.114.125.083.19-.03.065-.125-.069-.153.102-.016.099-.007.352.164.496.128.108.423.09.477.267.055.176.22.365.373.237.15-.13.19.236.035.133-.154-.104-.418-.09-.388.076.03.166.126.536.237.152.034-.117.295.03.487.214.116.109.145.3.258.261.3-.1.294.225.492.207.531-.04 1.276.538 1.31.561.033.024.102.143.102.023s-.5-.198-.535-.568c-.014-.139-.281-.263-.582-.146-.301.119-.259-.253-.198-.336.062-.082.18-.252.203-.042.02.209.073.037.132.021 0 0 .065-.03.133.107.066.138.187.125.096-.171-.093-.296.604.033.41-.136zm-.185-.688c-.045-.06-.078-.185-.103-.067-.026.116.148.127.103.067zm-.256-.141c-.025-.054-.096-.092-.15-.102-.14-.025.086.176.131.248.029.046.059-.061.019-.146zm-.35-.211c-.104-.053-.402-.235-.58-.145-.183.094.686.2.58.145zm-.984-.336c-.025-.11-.15-.443-.28-.172-.074.153.025.2.103.179.08-.022.203.1.177-.007zm-1.617.47c-.026-.207-.395.209-.252.213.143.004.197.057.274.152.095.12.133.324.149.272.027-.095.026-.251.083-.164.057.085.172.181.329.157.158-.025-.558-.421-.583-.63zm.065-.546c-.122-.041-.309-.203-.496-.181-.186.022-.043.16-.002.226.041.07-.1.014-.084.076.013.062.342.052.156.114-.187.062-.322.09-.477.126-.156.032.48.408.498.308.018-.101-.392-.276-.265-.27.128.004.36.022.335-.023-.024-.044-.185-.017-.057-.093.129-.075.45.209.4.021-.048-.18.114-.263-.008-.304zm-.48-.559c-.244-.041.036.119.24.199.094.04.184.112.177.047-.02-.208-.06-.184-.417-.246zm-.256.575c.061.055.132.13.115.085-.031-.076-.075-.174-.17-.153-.04.01.007.028.055.068zm.24-1.77c-.135-.014-.277-.162-.398-.125-.057.016.077.08.187.159.13.092.346-.019.21-.033zm3.903 5.598c.05.048.061.033.077.03.016-.005.038.002.023-.013-.03-.03-.2-.112-.1-.017zm.356-1.207c.01-.096.155.043.162-.1.008-.141-.075-.212-.275-.34-.199-.126.105.539.113.44zm.272.222c.251.18.292.229.46.2.131-.023-.341-.119-.425-.271-.038-.068-.318-.135-.035.07zm.482-.783c-.017-.18-.184-.132-.28-.172.064.163.155.303.28.172zm-.313.024c-.34-.435-.402.05-.262.136.14.084.926.536 1.043.599.118.061-.44-.299-.78-.735zm.553-.517c-.023-.048-.079.021-.124-.024-.062-.06-.112-.215-.098-.088.024.221.275.224.222.112zm-.132.46c.11.116.34.39.632.33.11-.024-.118-.073-.256-.145-.223-.117-.445-.257-.376-.185zm-.406 1.736c.066.113.083.241.206.054.083-.126.496.138.514.21.019.073-.104.174-.036.221.028.02.16-.033.288-.001.184.046.775.42.592.145-.184-.275-.684-.644-1.119-.713 0 0-.447-.092-.566-.092-.057 0 .062.077.12.176zm.517.458c.037 0-.024-.021-.077-.064-.035-.028-.046-.081-.092-.09-.117-.02.109.154.17.154zm1.304 1.606c.046-.031.06-.094.017-.099-.044-.008-.023.056-.143.027-.17-.044.08.101.126.072zm-7.082-6.315c-.078-.035-.111-.036-.167-.028-.055.008.188.088.233.115.045.024.012-.054-.066-.087zm-.02-.253c-.09-.256-.453-.283-.326-.171.06.053.118.039.194.099.084.07.18.209.133.072zm-.047-1.024c-.12-.054-.193-.006-.322-.054-.037.299.242.084.219.34-.005.059-.221.051-.31-.016-.09-.066-.106-.049-.154-.008-.049.04.117-.012.15.036.033.05.268.258.411-.122.016-.042-.128-.039-.07-.063.06-.023.197-.06.076-.113zm-.495-.06c-.058-.087-.572-.456-.692-.504-.12-.048-.432-.031-.543-.08-.11-.05-.147-.259-.308-.344-.162-.084-.282.037-.426 0-.144-.036-.366-.166-.258-.043.11.121.159.18.148.215-.01.036-.055.09.04.068a.69.69 0 01.527.125c.05.037.322.116.412.175.108.069.041.122.169.178.055.024.12-.036.174-.021.07.019.129.11.19.105.307-.024.118-.032-.06-.126-.18-.094-.233-.238-.046-.135.188.104.49.295.58.387.093.09.15.085.093 0zm-1.238-.87c-.054-.05-.089-.114-.15-.097-.035.01.154.159.192.23.039.071.04.025.061-.05.01-.035-.059-.04-.103-.083zm-.659.435c.149.008.298.007.147-.037-.224-.063-.248-.166-.304-.099-.056.065.019.048-.02.123-.038.074.107.012.177.013zm.732.419c.042.008.078.037.075-.004-.006-.091-.057-.075-.133-.023-.04.028.011.019.058.027zm.596.156c-.047.018-.054-.086-.088-.09-.008.05.055.16.088.09zm.617.749c.08.01.153.057.136.032-.035-.055-.108-.245-.226-.087-.055.074.018.047.09.055zm-2.392-1.77c-.026-.154-.272-.291-.216-.214.055.079-.062.203.058.193.119-.009.185.172.158.02zm-.012.427c-.03-.006-.08.012-.12.031-.038.019.175.035.212.035.037 0-.062-.059-.092-.066zm2.428 2.296c-.057.032-.07-.017-.117-.034-.1-.038-.078-.182-.173-.236a2.675 2.675 0 00-.351-.162c-.09-.03-.036.063.026.124.062.062.117-.006.203.051a.977.977 0 01.195.165c.051.052.131.09.161.114.03.022-.051.029-.096.052-.104.05.578.114.682.161.104.047-.386-.313-.53-.235zm4.642 3.459c-.015-.03-.061-.043-.097-.076-.068-.061-.133-.13-.1-.072.052.088.11.14.2.276.089.135.043-.036-.003-.128zm-12.36 57.563c-.415-.139-.878-.024-1.178-.38-.066-.092-.16.1-.226.081-.066-.017-.105-.088-.168-.153-.039-.042-.148.045-.241.073-.059.015-.16-.05-.25-.08-.048-.012-.048.03-.068.036-.197.023-.458.115-.523.068l-.04-.03c-.038-.04-.137.113-.215.134-.118.032-.256.067-.367.036-.34-.09-.972-.133-1.028-.033-.043.094-.034.232-.136.3-.04.013-.093.049-.138.04-.388-.07-.774-.152-1.16-.224a3.48 3.48 0 00-.469-.064c-.222-.01-.445.002-.668-.004-.225-.007-.457-.043-.566.249-.029.101.163.21.123.312l-.244.653c.035.131.144.123.272.103.143-.023.291-.021.437-.039.276-.029.552-.06.827-.097.218-.032.429-.044.563.092.074.07.379.075.547.092.201.023.41.061.604.03.178-.031.342-.147.502-.247.284-.082.573-.155.879-.082.097.024.21-.014.315-.03.285-.044.726-.03.894-.142.034-.028.063-.166.183-.152.24.046.552.195.732.139.342-.104.657-.203.708-.31.029-.106.205-.329.098-.371zm-7.222-.68c-.086 0 .04.065.057.092l.09.148c.017.032.07 0 .08-.05.018-.114-.03-.174-.227-.19zm-2.322-.351c-.067-.015-.108.023-.067.055.059.057.05.126.069.158.018.058.03-.1.068-.14.1-.053-.006-.058-.07-.073zm-.23.332c-.213.024-.198.095-.106.103.027.006.053.104.081.02.012-.054.197-.063.21-.115.058-.153-.157-.001-.185-.008zM13.953 13.407c.003.022.048-.046.061-.052.092-.044.061-.24.126-.34.08-.122.272-.386.259-.455-.004-.024-.076.037-.123.05-.162.035-.342.666-.323.797zm4.486 14.038l.162.315c.118-.276.108-.31-.15-.595h-.334c.024.214.224.187.322.28zm.774-1.962c.12-.03-.338-.227-.264-.282.133-.11.115-.3.168-.458.03-.09.141-.278.2-.223.287.25.302.652.516.935.081.133.39.076.596-.158.037-.041.156-.094.118-.145-.076-.295.075-.512.254-.693.208-.203-.517-.326-.456-.483.017-.045.026-.124.068-.177.351-.443.164-1.142.617-1.504.165-.131.323-.262.31-.459-.01-.144.282-.156.126-.21-.19-.007-.303.11-.412.227-.539.582-1.088 1.152-1.607 1.751-.272.312-.488.672-.73 1.008-.05.07-.116.128-.163.2-.117.18-.237.36-.139.623.049.128.472.166.798.048zm.402 1.033c.187-.039.04-.113-.162-.18-.065-.023-.408.568-.444.697-.08.251.377-.468.606-.517zm.17-.799c-.11-.094-.19-.233-.29-.294-.105-.058-.057.05-.034.088.03.057.067.122.05.166-.042.11-.286-.044-.253.02.134.264.312.282.698.051.076-.047-.105.024-.17-.03zm1.668-.938c.163-.143.302-.318.437-.49.023-.029-.006-.138-.044-.168-.05-.037-.151-.04-.197-.042-.224-.014-.32.413-.494.601-.148.177.22.17.298.099zM32.185.73c.015-.058.044-.111.131-.13.088-.02.223-.022.36-.029.134-.005.241.004.314-.039a.45.45 0 01.247-.073c.102 0-.088-.108-.154-.092-.222.053-.408.025-.51.039-.102.014-.31.077-.364.13-.053.055-.106.132-.106.194 0 .064.067.058.082 0zM8.845 67.243c-.114.009.07.065.099.093.036.033.085.207.11.104.026-.181-.025-.217-.208-.197zm-.46-.25c-.044.015-.09-.069-.078-.021.03.121.101.145.175.012.048-.103-.028-.012-.097.01zm-1.381-2.36c-.093.076-.073.131.057.224.076.064.02-.12.012-.153-.005-.024.084-.255-.07-.07zm-.239-43.16c-.016-.048.025-.217.037-.322-.027-.007.017-.159.001-.206-.014-.045-.164.491-.25.596-.085.107.196.068.316.178.12.109.129.202.184-.016.056-.22-.273-.18-.288-.23zm-.296.56c-.025-.009-.017-.098-.09-.022-.072.076-.004.186.064.226.023.015.054.122.087.034.033-.088.047-.198-.061-.238zm-.511.514c-.059.109.03.289-.01.381-.087.204-.18.408-.352.541.164.024.272.2.321.048.05-.153.311-.444.55-.581.113-.064.109-.205.052-.353-.037-.095-.067-.212-.158-.278-.056-.041-.306.056-.403.242zm-.301 40.938c0 .132.054.195.125.243.051.035.182.2.164.104-.005-.223-.006-.259-.174-.313-.03-.01-.115-.111-.115-.034zm.918.643c.056.1.072.15.106.179.024.02.073.01.12.016.301.032-.307-.35-.226-.195zM.78 46.015c.058-.084.103-.095.156-.143-.008-.092-.112-.073-.203-.13-.07-.042-.22-.574-.22-.135 0 .44.113.836.433.856.186 0-.328-.219-.166-.448zm-.375-1.82c-.021.108.004.037-.044.326-.047.291.142-.073.175-.118.11-.15.002-.352.082-.567-.242.065-.195.26-.213.359zm88.001 3.788c-.061.101-.213.168-.169.277l.113.33c.052.14-.186.205-.277.309-.119.134-.201.286-.143.469.072.235.012.437-.092.65-.064.129-.128.293-.102.425.049.269-.008.51-.088.756-.134.41-.171.834-.159 1.265.028.11-.09.153-.13.23a2.96 2.96 0 00-.315.929c-.031.208-.008.434-.16.613-.126.148-.144.327-.143.515a2.02 2.02 0 01-.047.508c-.138.546-.414 1.05-.516 1.61-.016.088-.089.167-.145.246-.048.068-.23.08-.17.201.054.127.235.267.158.372-.233.387-.435.788-.337 1.153l-.292.88c-.018.051-.028.107-.058.148-.137.191-.189.407-.217.632a.772.772 0 01-.25.468c-.133.127-.205.319-.295.487-.048.09-.082.187-.12.276-.035.095-.208-.027-.322-.041-.178-.019.294.498.232.657-.102.22-.206.425-.4.55-.225.147-.182.517-.264.607-.16.152-.192.34-.204.555-.008.157-.116.315-.198.461-.061.11-.15.206-.231.304-.13.156-.262.308-.393.463-.02.025-.052.017-.062.087l-.028.274c-.018.184-.219.344-.315.52-.05.092-.113.176-.177.26-.13.168-.264.332-.396.5-.164.21-.318.428-.493.626a.988.988 0 00-.231.408c-.077.274-.041.581-.24.822-.1.124-.19.26-.268.4-.148.266-.31.518-.609.62-.115.063-.226.415-.47.511a.649.649 0 00-.405.467.737.737 0 01-.24.369c-.136.107-.316.159-.529.26-.208.19-.002.439.027.703-.004.125-.188.316-.321.378-.156.055-.326.108-.417.224-.363.462-.695.948-1.051 1.416-.228.302-.47.598-.92.558-.12-.026.045.244-.029.31l-.302.206c-.103.073-.29-.128-.37 0-.036.09-.07.188-.114.278-.053.112-.088.263-.18.323-.496.336-.825.875-1.388 1.125-.046.02-.073.079-.114.112-.285.222-.563.455-.86.658-.27.185-.61.258-.804.564a.536.536 0 01-.292.19c-.227.062-.39.215-.577.335-.441.284-.893.55-1.335.83a1.9 1.9 0 01-1.028.323.39.39 0 00-.287.162c-.195.329-.486.534-.813.705-.218.113-.434.233-.657.337-.493.231-.989.455-1.484.679-.252.116-.508.224-.758.341-.164.079-.316.18-.482.255-.124.055-.25.103-.377.15-.333.126-.668.246-.952.478-.04.032-.096.047-.148.063-.318.092-.603.23-.719.589-.043.14-.812.233-1.214.345-.237.067-.47.162-.711.19-.427.048-.82.246-1.26.236-.195-.006-.391.053-.588.082-.144.022-.308.051-.414.147-.34.303-.75.364-1.175.403-.308.026-.614.077-.922.108a7.776 7.776 0 01-.704.044c-.126.002-.251-.035-.377-.05-.114-.013-.252-.066-.339-.022-.28.14-.586.11-.872.177-.447.103-.87.056-1.302-.037-.113-.024-.243-.046-.347-.014-.416.128-.844.13-1.268.176a3.523 3.523 0 01-1.31-.089c-.133-.056-.638.247-.901.217-.28-.032-.552-.017-.825-.01-.512.013-1.024.044-1.536.065-.479.019-.959.037-1.438.052-.44.012-.88.019-1.318.027-.202.004-.404.01-.606.001-.414-.019-.82-.093-1.246-.037-.53.07-1.074.222-1.613.018a.148.148 0 00-.064-.002c-.288.036-.46-.134-.609-.343-.043-.061-.076-.127-.113-.19-.095-.029-.185-.055-.269-.029-.047.014-.008-.021-.137.102-.13.121.156.049.22.07.096.039-.11.03-.164.038-.243.036-.471-.011-.694-.071l-.2-.17c-.232.02-.43.093-.582.04a3.044 3.044 0 00-.972-.178c-.04-.001-.081-.024-.126-.039l-.197-.233c-.046-.01-.079-.025-.109-.02-.498.084-.917-.13-1.335-.352-.483-.257-.988-.447-1.553-.492-.115-.02-.183-.155-.281-.237-.128-.106-.679-.108-1.018-.008-.056.016-.126-.018-.188-.034-.248-.061-.493-.134-.744-.182a.902.902 0 01-.459-.21c-.163-.15-.336-.289-.547-.469-.085-.093-.337.047-.435 0-.13-.05-.246-.107-.368-.141-.212-.059-.427-.104-.64-.155-.065-.023-.049-.068-.139-.057-.105.014-.136.118-.187.07a.787.787 0 00-.735-.194c-.131.028-.236-.051-.34-.14-.217-.188-.434-.391-.701-.364-.17-.107-.287-.204-.422-.258a.519.519 0 01-.29-.28c-.058-.12-.136-.23-.197-.336-.07-.102-.366.03-.526.031a1.438 1.438 0 01-.974-.357.52.52 0 01-.2-.42c.001-.126-.02-.25-.031-.378-.01-.078-.16-.069-.23-.084-.212-.042-.4-.161-.596-.213-.34-.095-.602-.265-.86-.49-.147-.131-.362-.18-.539-.28-.22-.127-.614-.314-.64-.402l-.056-.237c-.019-.075-.213.105-.227.028-.03-.116-.012-.207-.073-.286a.79.79 0 00-.44-.274c-.102-.02-.251.069-.319.012-.3-.2-.561-.38-.677-.708-.046-.13-.17-.187-.305-.21-.105-.017-.219-.018-.314-.062-.24-.112-.503-.211-.52-.543 0-.017-.023-.035-.037-.053-.038-.082-.145.1-.197 0-.027-.04-.064-.082-.083-.13-.135-.333-.379-.512-.724-.624-.278-.09-.536-.262-.778-.436-.302-.216-.58-.469-.867-.709-.329-.272-.671-.53-.984-.82-.4-.372-.793-.752-1.156-1.159-.175-.196-.414-.341-.555-.554-.051-.079-.036-.227-.107-.266-.436-.204-.563-.598-.647-.612-.257-.038-.408-.197-.554-.377-.24-.296-.5-.576-.747-.867a23.544 23.544 0 01-.63-.766c-.147-.192-.279-.395-.445-.631-.04-.07-.086.059-.167-.039l-.758-1.121c-.058-.075.055-.141.09-.232.06-.152-.277.021-.33-.055-.104-.144-.267-.284-.318-.457-.137-.461-.494-.765-.747-1.143-.273-.409-.544-.818-.837-1.213-.241-.325-.424-.688-.707-.99a3.59 3.59 0 01-.577-.843c-.137-.274-.264-.538-.44-.66-.165-.27-.263-.472-.4-.647-.354-.453-.63-.943-.755-1.51-.086-.386-.255-.747-.302-1.146-.025-.207-.133-.403-.2-.605-.084-.252-.252-.51-.23-.76.054-.624-.286-.579-.25-.74.099-.402-.127-.727-.262-1.07-.103-.262-.144-.508-.037-.77h-.002l.06-.392c-.244-.298-.496-.592-.54-1.044.06-.174-.019-.37-.134-.558-.153-.252-.221-.53-.261-.828-.017-.085.128-.061.21-.101.119-.052-.257-.11-.272-.208-.18-.961-.174-1.908.093-2.848.049-.125.166-.01.236-.015.097-.006-.01-.23-.088-.336-.18-.244-.366-.484-.43-.801-.08-.404.037-.79.064-1.183.013-.188.022-.354-.065-.528a.628.628 0 01-.066-.306c.018-.311.06-.619.086-.928.026-.298.071-.598.062-.896-.014-.459-.072-.915-.1-1.372-.01-.171.002-.344.02-.514.017-.178.066-.469.083-.572.018-.101.163-.373.244-.582.12-.31.232-.622.349-.931.06-.16.138-.315.191-.477.195-.6.379-1.206.577-1.807.12-.364.229-.727.251-1.116.014-.243.101-.483.113-.724.014-.308.1-.587.212-.867.055-.137.09-.288.103-.437a1.042 1.042 0 00-.039-.401c-.067-.203-.163-.396-.257-.59-.067-.14-.062-.266.034-.39.053-.068.093-.146.151-.208.271-.294.309-.663.362-1.034.044-.305.128-.604.068-.914-.006-.03.016-.062.022-.092.052-.274.096-.548.156-.819.063-.288.108-.588.332-.813a.333.333 0 00.065-.142c.006-.05-.142-.129-.132-.189.009-.06.19-.113.227-.164.037-.05.018-.205.056-.288.127-.281.243-.573.412-.828a.898.898 0 00.16-.395c.01-.08-.048-.212-.014-.256.479-.574.766-1.025 1.157-1.73a.675.675 0 00.1-.275c.01-.116.247-.239.426-.261.018-.004.18-.234.059-.195-.124.039-.33.02-.308-.057.023-.076.052-.636.19-.674.14-.037.302-.078.263-.154-.04-.076-.156.069-.143-.154.014-.218.318-.238.35-.292.031-.054.143-.189.095-.196-.034-.005-.117-.093-.263-.044-.046.016-.167.207-.137-.022.03-.227.26-.638.523-.839.169-.428.891-1.33 1.042-1.29.15.04.308.071.253.023-.057-.052-.123-.31.026-.384.148-.072.485-.396.719-.678.44-.534.81-1.127.817-1.004.012.197.093.262.15.424.04-.095.081-.146.08-.198 0-.248.11-.438.311-.566.206-.13.251-.194.354-.478.103-.284.583-.313.662-.321.079-.008.417-.815.39-.895-.028-.08.228-.253.335-.354.14-.131.288-.251.432-.376.112-.096.237-.18.33-.292.207-.244.393-.504.595-.754.175-.214.36-.42.543-.628.027-.033.05-.078.09-.077.04.003.158 0 .218.016.062.015-.052-.247.031-.265.085-.018.33-.127.34-.187.012-.06.139-.465.424-.477l.018-.199c.3-.257.585-.517.887-.756a1.26 1.26 0 00.39-.496c.007-.02.028-.032.053-.059.07-.021.148-.048.227-.072.056-.254.203-.449.393-.612.162-.137.337-.258.499-.398.177-.154.34-.324.517-.478.2-.176.513-.43.479-.402-.034.028.06-.12.114-.138.054-.016.269-.082.335-.106.065-.024.282-.566.338-.587.054-.023.316-.163.46-.288.51-.441.898-1.152 1.024-1.168.163-.019.726-.556 1.044-.853.085-.08.163-.167.245-.251.337-.337.834-.496 1.067-.952.022-.043.088-.061.127-.096.134-.119.276-.232.397-.363.21-.229.404-.473.743-.522a.611.611 0 00.233-.106c.268-.177.57-.229.879-.282.357-.062.71-.147 1.059-.238.507-.133 1.01-.286 1.517-.417a.771.771 0 01.345.003c.345.081.429.046.638-.256.063-.092.162-.206.257-.218.271-.033.567-.318.646-.329.078-.01.538-.075.793-.108a.49.49 0 00.374-.221c.16-.254.393-.387.679-.448.082-.018.16-.055.233-.079.074-.024.09-.27.163-.333.072-.067.493-.219.748-.284.361-.096.731-.154 1.097-.222a.98.98 0 01.226-.005c.47.019.94.044 1.41.06.237.01.473.007.709.008.179.001.39-.045.58 0 .19.047.372.195.481.179.11-.015.02.014-.09.166-.11.154.363.111.378.031.061-.355-.177-.355-.09-.397.085-.044.663-.208 1.014-.064.102.041.23.036.342.025.2-.019.4-.021.595 0h.028v.003c.166.021.328.06.483.122.212.087.397.108.619.086.24-.027.49-.011.73.024.23.034.452.126.68.18.291.068.593.094.844.288.055.042.14.048.212.064.357.073.775.109.987.202.213.095.629.464.963.583.226.08.773-.039.749.055-.025.094.078.214.146.296.165.198.418.304.576.376.222.101.44.048.33-.51-.058-.201.324.416.339.535.014.12-.109.353-.093.47.016.114.709.39 1.18.702.009-.02.265.207.274.188.13.035.268.052.388.11.02.007.049.038.082.074.014.03.027.05.04.08.085.181.464.827.576 1.023.112.197.88.637.908.893.028.259.546.801.546.801s-.016.736.047.928c.047.132.094.283.09.355-.007.135.094.37.16.55.05.129.117.254.187.374.202.352.203.933.11 1.079-.092.146-.433.324-.641.474-.276.202-.353.466-.283.792l.018.094c.048.152.038.129.107.186.067.059.101.12.077.166-.024.042-.047.056-.088.033-.024-.012-.029-.025-.043-.032.013.09.021.167.026.203a.45.45 0 01-.202.386c.009.052-.052.031-.067.039-.019.01-.071.025-.067.099.004.07-.059.037-.097.048-.04.009-.097 0-.121.048-.025.048.024.038 0 .038-.025 0-.078-.024-.117-.092-.037-.065-.106-.082-.172-.082-.172.002-.331.017-.415.102-.18.179-.292.406-.428.62-.16.252-.322.334-.618.292a3.59 3.59 0 00-.254-.03c-.042-.003-.042-.003-.162.021-.141.03-.242.097-.34.161-.038.026-.016.066.066.066.083 0 .006.025 0 .068-.005.044 0 0 0 .021 0 .024-.082.027-.14.017-.059-.009-.188-.042-.287-.028-.23.014-.616.096-.684.155-.067.057-.164.392-.254.47-.09.077-.803.071-1.194.149-.385.076-.76.202-1.136.334-.21-.013-.408-.078-.532-.324-.287.422-.684.244-1.037.219-.274-.02-.528-.015-.787.083a.507.507 0 01-.31.012c-.314-.099-1.01-.206-.937-.339.074-.132.005-.233-.025-.33a.947.947 0 00-.165-.289c-.053-.057-.353.002-.474.104-.121.104-.03.36-.04.506-.365-.015-.692-.046-1.019-.039-.364.008-.734.457-.7.593.022.095.183.182.344.274.136.078.134.032.226.074.092.044.102.07.248.118.146.048.33.009.388-.02.058-.028-.03.161-.127.2a.462.462 0 01-.349 0 .989.989 0 00-.452-.039 2.36 2.36 0 01-.298.041c-.302.026-.422-.51-.576-.801-.404-.116-.84.19-.933.637-.093.45-.94.608-1.073.712-.132.106-.092-.272-.11-.392-.026-.166-.104-.285-.262-.333-.358-.11-.715-.23-1.1-.101a.543.543 0 00-.305.212c-.09.128-.21.236-.318.35-.103.107-.209.21-.305.327-.211.121-.432.221-.69.207-.072-.004-.17.005-.214.049-.284.29-.698.344-1.018.59-.396.303-.82.58-1.206.9a69.13 69.13 0 00-1.56 1.34 8.244 8.244 0 00-.721.727 16.08 16.08 0 00-.805 1c-.164.22-.33.423-.584.456l-.344.456c-.123.37-.305.71-.753.826-.016.033-.047.07-.049.109a.689.689 0 01-.328.564c-.238.153-.368.379-.51.605-.066.104-.163.188-.247.284-.073.056-.252-.157-.346-.109-.382.201-.66.533-.936.856-.264.308-.485.65-.734.973-.13.168-.293.312-.422.483-.073.096-.146.221-.15.337a.713.713 0 01-.192.46c-.095.108-.167.238-.274.35-.072.061-.03-.143-.048-.214-.059-.217-.116-.432.04-.649.074-.09-.138-.341-.348-.408-.072-.01-.112.057-.154.101-.457.468-.917.934-1.363 1.41-.38.408-.754.821-1.11 1.25a1.742 1.742 0 00-.427 1.151c.002.277 0 .555 0 .824-.085-.059-.085-.059-.182-.44-.047-.137-.153-.028-.226-.043-.063-.03-.07.082-.074.11-.03.286-.163.52-.323.757a1.47 1.47 0 00-.204.57c-.137.825-.257 1.651-.382 2.478-.007.043-.015.088-.005.128.107.463-.04.917-.036 1.376.007.652.039 1.305.06 1.957.005.107.016.214.024.32.028.374.06.748.082 1.122.006.098-.01.2-.017.317-.028.18-.274.024-.367.032-.209.03-.168.308-.125.477.043.176.11.348.172.519.055.153.1.304-.017.496-.113.155-.205-.09-.306-.136-.242-.113-.48-.232-.724-.341-.297-.135-.542-.044-.75.188-.061.072-.125.142-.14.161-.166.244-.04.79-.04 1.15 0 .125.045.255.095.371.11.255.241.503.358.755.044.093.226.265.122.328-.14.09-.254.19-.386.24a.717.717 0 00-.475.564c-.06.315-.116.636-.11.953.009.439.075.875.121 1.311.037.341.083.68.12 1.021.04.355.058.439.297.454.062.004.217-.087.235 0 .059.26.188.506.18.79-.01.516.018 1.028.17 1.527.025.08.021.17.023.255.003.161.009.322-.005.482-.058.672.128 1.295.37 1.91.172.436.322.881.499 1.316.136.336.326.654.443.996.122.353.352.634.531.948.108.189.295.332.452.492.112.113.23.221.347.329.063.059.121.125.195.167.38.209.625.545.852.901.091.141.196.275.297.412.09.12.206.227.27.359.114.24.301.412.485.592.289.284.571.574.857.861.031.03.073.056.088.093.173.438.625.567.941.844.113.098.293.12.453.182.18.462.592.736.928 1.077.135.136.29.252.43.384.236.217.437.47.731.624.1.052.171.16.261.236.123.103.246.207.377.299.254.176.516.34.771.514.47.318.939.635 1.404.958.502.349.992.714 1.502 1.052.275.182.58.321.872.48.13.07.26.144.394.218.072.048-.086.259.023.323.085.06.17.144.274.192.535.248 1.067.503 1.614.723.316.126.657.189.986.285.133.037.272.068.395.13.488.245.962.52 1.457.749.416.192.85.35 1.285.494.153.05.458-.109.53.008.102.216.326.274.553.352.463.158.94.294 1.333.612.089.071.288.107.315.162.015.04.045.08.043.118-.013.35.188.532.466.703.392.243.819.297 1.256.335.213.018.427.033.64.049.043.003.088.015.128.004.484-.125.958.024 1.436.044.146.007.302-.012.44-.059.081-.028.263-.158.212-.21-.222-.232-.62-.135-.708-.23l-.416-.394c-.04-.056-.224.116-.262.042a19.825 19.825 0 00-.114-.276c-.04-.098-.153.271-.21.307l-.457.317c-.15.051-.334-.002-.522-.057a1.58 1.58 0 00-.562-.072c-.544-.047-.287-.252-.216-.35.127-.178.263-.2.421-.16.544.135.922-.093 1.055-.634.014-.06.024-.12.084-.188.077-.081.028.405.102.421.271-.014.137-.352.24-.346.073.005.205-.076.233.021l.129.356c.025.063.043-.004.065-.005.048-.006.006-.228.073-.235.239-.032.46.063.68.128.617.18 1.229.376 1.843.565.234.074.467.156.705.22.131.036.491-.044.404-.114-.239-.24-.48-.48-.719-.722-.047-.044.006-.084.06-.078.065.016.108.041.165.07.18.092.357.194.536.291.63.344 1.33.384 2.023.456.867.092 1.732-.055 2.6-.004a9.88 9.88 0 001.158-.005c.33-.022.654-.087.982-.132.094-.014.195-.047.283-.028.231.048.445.01.665-.056.224-.07.46-.108.684-.178.173-.054.342-.126.502-.212.14-.074.238-.189.131-.414.202.068.328.122.485.176.042.005-.008-.047.026-.056.215-.043.43-.083.644-.131.22-.048.44-.096.656-.159.166-.046.273-.164.315-.358.01-.066-.093-.222-.062-.258.022-.026.014-.056.063-.074.115-.046.228-.099.341-.148.1-.047.201-.091.303-.134.118-.049.245-.08.356-.141.6-.332 1.196-.665 1.788-1.008.186-.107.353-.243.533-.36.097-.064.199-.119.305-.18.077-.037.174.165.27.168.453-.01.843-.128 1.194-.423.224-.188.522-.289.775-.446.319-.199.625-.416.937-.624.161-.107.316-.227.487-.312.557-.276.97-.714 1.316-1.206.31-.44.723-.784 1.04-1.212.023-.033.063-.052.132-.042.048.001-.066.081-.1.121-.246.303-.49.605-.742.901a4.06 4.06 0 00-.702 1.138c-.044.121.325.24.59.136.375-.148.638-.426.868-.742.247-.336.492-.673.737-1.012.087-.121.17-.246.255-.369.024-.036.044-.073.073-.105.56-.614.907-1.368 1.354-2.056.167-.259.312-.532.46-.803.127-.233.124-.236.362-.34.071-.024-.087-.164-.059-.224a5.485 5.485 0 011.15-1.335c.075-.066.238-.092.234-.194-.006-.364.21-.674.487-.956.424-.435.663-.964.788-1.556a3.33 3.33 0 01.248-.762c.255-.525.38-1.09.538-1.645.04-.136.064-.264.182-.364.061-.05.094-.139.129-.215.089-.194.17-.392.255-.588.021-.049.046-.097.057-.149.076-.367.12-.741.228-1.097.147-.484.25-.964.183-1.472-.009-.071.016-.148.033-.222.074-.322.154-.644.226-.968a4.32 4.32 0 00.09-.694c.03-.488.129-.972.214-1.458.067-.377.226-.737.21-1.132a.65.65 0 01.046-.22c.109-.322.22-.645.336-.981.05-.147.198-.376.155-.45-.155-.262-.084-.563.002-.866.016-.05.136-.099.128-.17-.033-.098-.102-.1-.09-.166.025-.115.06-.23.072-.345.01-.094.02-.203-.018-.28-.195-.391-.19-.807-.175-1.226.004-.105.013-.21.022-.346.018-.154.416.364.398.241-.05-.425-.06-.815.047-1.216.093-.345.083-.721.018-1.087-.03-.166-.06-.346-.032-.509.084-.49-.075-.932-.223-1.379-.06-.184-.137-.362-.174-.552-.033-.162-.016-.336-.028-.504-.027-.389.054-.781-.093-1.168-.358-.941-.67-1.9-1.042-2.834a16.536 16.536 0 01-.694-2.168c-.06-.236-.173-.46-.256-.692-.148-.414-.286-.828-.438-1.239-.096-.261-.19-.527-.322-.77a35.232 35.232 0 00-.962-1.669c-.225-.365-.491-.7-.653-1.102a1.995 1.995 0 00-.357-.57c-.395-.45-.698-.97-1.127-1.398-.274-.275-.454-.644-.676-.972-.03-.046-.047-.1-.082-.139-.421-.439-.844-.875-1.266-1.313a1.33 1.33 0 01-.138-.176 7.19 7.19 0 00-.311-.432c-.077-.095-.235-.444-.47-.58-.09-.054-.165-.136-.238-.215a15.37 15.37 0 00-.876-.839c-.028-.018-.034-.054.014-.06.048-.005.087-.222.028-.173-.059.05-.147-.028-.141.028.005.057.02.133-.018.101-.035-.032-.15-.133-.23-.214-.078-.084-.081-.087-.047-.111.143-.11-.236-.167-.136-.13.1.04.035.075-.01.053a2.081 2.081 0 01-.249-.16 4.871 4.871 0 00-.404-.344c-.179-.135-.35-.282-.53-.414-.054-.04-.292-.109-.176-.1.115.01.359.14.274.074-.084-.068-.275-.135-.34-.208-.139-.199-.194-.158-.303-.24-.11-.083.144.298.067.262-.078-.037-.516-.282-.576-.34-.059-.057.047-.185-.019-.185-.067-.001-.127.053-.209-.033-.08-.088-.118-.122-.237-.235-.472-.455.538.33.622-.185.02-.126.487.09.343-.071-.145-.161-.418-.393-.544-.519-.04-.038-.03.043-.124.03-.202-.028-.52-.098-.255.021.29.13.47.35.5.4.03.048-.87-.21-.99-.516-.042-.105.294.085.223-.039-.07-.125-.882-.342-1.031-.396-.15-.053-.264-.193-.368-.21-.103-.018-.22-.135-.26-.246-.04-.112-.174-.046-.28-.098-.104-.051-.15-.132-.262-.192-.078-.042-.146-.099-.228-.135l-.21-.083a1.92 1.92 0 01-.667-.42c-.36-.333.323-.298-.12-.524a16.07 16.07 0 00-.346-.172c-.098-.046-.208-.146-.246-.177-.037-.03.096.007.179.032.067.02.13.065.095.013-.079-.116-.226-.073-.333-.12-.107-.046-.156-.089-.228-.288-.01-.028-.022-.105-.083-.178-.061-.076 1.544.604 1.45.538-.091-.062-.941-.572-1.007-.542-.133.058-.128-.531-.295-.187-.02.044.131.188.011.095-.12-.095-.18-.008-.31-.194-.072-.117-.5-.545-.228-.348.27.196.656.195.497.1-.158-.096-.531-.248-.641-.302-.111-.056.02-.599-.386-.571-.02.004.03.053-.057.01-.093-.045-.25-.138-.416-.166.106.119.318.103.456.2.082.06.125.187.17.303.031.081.089.174.054.162-.085-.029-.197-.068-.276-.093-.078-.027-.046-.228-.113-.29-.073-.07-.511-.134-.635-.2-.123-.063-.099-.226-.151-.258a.295.295 0 00-.118-.045c-.05-.007-.051-.007-.11-.047-.057-.039.025-.11.067-.116a.799.799 0 01.302.093c.113.055.013.203.145.188.057-.006.178-.113.178-.218 0-.106-.121-.046-.291-.072-.169-.024-.21-.011-.266-.082-.02-.025-.114.071-.123-.07-.008-.14.204-.199.162-.151-.042.05-.098.139.014.053.113-.085.123-.441.365-.345.24.095-.073-.095-.036-.133.122-.126.638-.032.715.166.03.076-.05.106-.12.115-.069.007.423.157.605.115.2-.05.287-.224.316-.194.054.059.093.064.156.112.064.048-.112.192.091.15.204-.043.341.125.536.225.15.077.366.085.323.04-.096-.1-.075-.085-.14-.121-.066-.038-.22 0-.173-.038.21-.164.429-.014.412.048-.092.315.147.076.14.327-.106.292-.627-.061-1.028-.295-.067-.04-.198-.05-.257-.081-.037-.019-.005-.059-.037-.07-.083-.031-.145-.037-.174 0-.078.105 1.241.683 1.373.766.14.087.22.093.356.073.034-.005-.009-.021-.036-.057-.027-.036.03-.115.098-.11.067.003 1.126.482 1.323.645.066.056.021.348-.188.45-.21.103.616.376.699.384.083.007.142.119.168.188.026.068.04.148.035-.089-.006-.237.079.164.201.177.123.015.407.171.345.056-.062-.112-.095-.606-.491-.56-.397.047-.604-.368-.664-.412-.06-.042.034-.088.059-.138.024-.051.256.178.457.049.2-.13.17-.055.138.07-.053.205-.133.089-.176.097-.134.024.26.23.403.193.144-.04-.157-.23-.06-.264.097-.035.21.037.21.119-.002.082-.015.149.061.248.076.098.09.089.093.157.004.068-.003.057-.015.14-.012.084.064-.17.097-.035.018.075.025.267.03.308.005.043-.06-.033-.042.046.018.077.45.353.424.27-.08-.268-.466-.01-.253-.592.212-.58.59.07.603-.152.014-.221.129.002.145.091.017.09-.06.181-.091.213-.032.031.005.124-.01.2-.017.078-.153.295-.17.2-.018-.093-.01-.013-.024-.13-.016-.116-.192.342.03.309.221-.035.18.155.346.183.167.028.215.042.197-.019-.016-.061-.057-.167.003-.275.088-.157.726.547.671.207-.056-.339-.572-.213-.577-.524-.003-.15.188.015.309-.055.119-.07-.224-.03-.205-.232.018-.201-.09-.457-.198-.336-.106.123.047.496-.055.335-.104-.16-.144-.164-.086-.308-.073.043-.331-.168-.238-.179.094-.01.227.007.134-.037-.094-.043-.6-.373-.726-.267-.032.028-.039.042.007.127.038.07-.039.088-.128.025-.088-.06-.09-.017-.042.044.05.063.104.075.077.171-.027.095-.326-.05-.162-.488.036-.095-.406-.279-.634-.104-.075.059-.009-.279.015-.3.023-.023.076-.07.072-.09-.005-.02-.033-.133-.02-.126.015.005.096.05.073.016-.022-.03-.074-.047-.082-.088-.01-.043.017-.26.126-.217.107.044.31.253.453.205.047-.017.034.021.06.07.026.049.119.178.165.18.047.003.112.166.103.103-.008-.064-.073-.097-.013-.112.06-.014.188-.073.183-.028-.006.094-.024.148.026.272.065.164-.074.364.268.247.342-.117.352.196.367.06.016-.136.038-.197.055.027.018.224.478.437.565.376.273-.186.432.137.635.028.076-.04-.148-.059-.315-.158-.283-.166-.602-.424-.49-.393.178.047.406.035.38-.083-.026-.117-.787-.19-.573-.208.063-.005.404-.037.287-.058-.115-.02-.373-.26-.324-.25.047.011.472.195.663.202.12.004.305-.058.305-.107 0-.05.15.036.157.144.009.11-.034.19.019.23.051.04.734-.16 1.045.262l.132.219c.041.134.89.744.913.225.005-.09.55.31.415.31-.085-.002-.164.017-.15.173.014.16.055.364.002.425-.178.18.504.193.624.068.066-.053-.044-.428-.234-.497-.093-.034-.111-.078-.107-.132.002-.06.143-.07.2-.04.111.054 1.533.766 1.533.766-.683-.492-1.519-1.025-2.246-1.258a2.889 2.889 0 00-.647-.12c-.07.005.14.057.039.082-.1.026-.217-.026-.372-.204 0 0-.169-.202-.17-.196-.14-.158-.284-.308-.41-.326-1.124-.371-2.2-.862-3.281-1.236-.025-.01.027-.132.097-.12.071.012.115.06.101.016-.078-.238-.383-.215-.428-.247-.045-.032.083.13.097.244.014.115-.042.052-.114.032a1.082 1.082 0 01-.154-.065c-.061-.028-.118-.104-.19-.176l-.048-.05c-.131-.146-.232-.102-.397-.112-.164-.009-.632-.234-.818-.352-.187-.118-.2-.122-.517-.233l-.003-.001c-.138-.051-.248-.088-.292-.114-.128-.074-.363-.202-.349-.489.003-.057.424.148.53.147.04 0 .196.094.308.132.179.06.32.068.249.026-.114-.064-.488-.173-.391-.178.097-.004.245.06.188-.004-.056-.063-.4-.182-.476-.238-.077-.054-.609-.416-.854-.301-.04.016-.4-.144-.226-.045.174.098.672.253.53.272-.143.018-.94-.26-1.05-.198-.043.024.068.019.218.055.24.057.612.168.852.26.08.032.094.05.083.07 0 0-.013.022-.03.045-.017.024.03.02.01.077-.02.057-.2.245-.22.016-.783-.04-1.197-.383-1.242-.43-.046-.05.154-.035.019-.125-.134-.088-.501-.049-.375-.136.126-.085.621.27.606.22-.193-.617-.181-.005-.508-.457-.039-.053-.956-.112-1.28-.196-.323-.087-.568-.187-.823-.23-.24-.04-.338-.102-.373-.13-.034-.028-.126-.119-.088-.139.16-.088.453.036.674.088.226.054.377.036.281-.06-.192-.19-.362-.133-.583-.329-.22-.197-.197-.144-.313-.241-.116-.096.354.069.426.085.09.028.178.059.267.08.17.05.351.124.427.227l.184.253c.12.167.406.215.506.26v.001c.11.092.239.023.245-.014.008-.044-.12-.15-.078-.167.041-.017.064-.05.136-.03.216.066.356-.029.564.033.552.124 1.185.416 1.649.261.142-.05-.183-.187-.2-.273-.035-.224.135-.13.195-.192-.794-.488-1.065-.018-1.613-.038-.12-.005-.354-.137-.512-.209-.021-.01-.052-.021-.094-.036-.128-.039-.638-.083-.832-.136l-.008-.003a12.102 12.102 0 00-1.346-.392c-.618-.341-1.207-.725-1.884-.953-.094-.028.151-.035.138-.056-.315-.476.019-.376.005-.561-.015-.186.099-.072.18.008.049.046.062.308.027.257a1.21 1.21 0 00-.094-.121c-.07-.07-.054-.032-.069.016-.014.044-.038.009-.062.076-.025.064.11.073.202.149.06.05.108.081.159.116.163.153.368.34.313-.023-.054-.361-.137.095-.167.043-.029-.053-.115-.072-.13-.103-.08-.142-.081-.304-.047-.248.034.054.115.203.107.14-.02-.16-.153-.394-.086-.382.451.077 1.15 1.125 1.514.796.125-.114.151.168.13.197-.02.032-.131.083-.231.156-.101.073.817-.015.756-.067-.06-.053-.067-.05-.102-.106-.15-.24-.257-.563-.124-.528 1.208.241 2.305.49 3.601 1.033.214.096.019.503.003.485a4.735 4.735 0 01-.137-.29c-.097-.178-.51-.024-.542.145-.02.11.291.088.46.17.535.262 1.157.66 1.281.02.027-.149.96.458 1.144.12.022-.057-.007.103.513.24a.67.67 0 00.223.029c.04-.011.084.114.12.202.048-.014.191.104.21.178 0 0 .028.216.056.312.03.093.185.024.112-.031-.072-.055-.114-.121-.11-.157.009-.044-.002-.071.022-.096.02-.02.238.145.404.193 0 0-.045-.096-.182-.116-.068-.01-.259-.164-.132-.137.108.017.186-.027.347.021.065.05.065.103.136.139.051.025.125-.124.22.068l.138.234c.037-.056.072-.153.133-.117.061.025.123.052.184.079.28.133.554.276.83.416.076.038.147.086.224.126.16.088.32.176.484.255.036.019.079-.053.114.032 0 0 .048.165.095.204.047.036.368-.117.9.137.057.03.086.051.173.044.082-.005.232.134.586.359 1.383.881 4.888 3.19 6.927 4.696a1.028 1.028 0 00-.57-.51c-.265-.113-.707-.706-.86-.698-.257.019-.605-.307-.967-.65-.088-.1.133.055.245.017.064-.022.031-.144.092-.091.131.097.399.325.363.236 0 0-.066-.21-.136-.29-.071-.08-.206-.089-.207-.153 0-.08.003-.14.052-.084.709.664 1.394 1.308 2.132 1.998.1.096.142.222.306.286.348.148.68.502 1.036.824.15.135.289.283.432.426.113.113.24.217.335.345a.64.64 0 00.368.23c.201.06.42.129.578.26.304.251.582.54.848.834.206.23.402.475.559.739.203.341.437.612.867.625.12-.004.06.055.089.084.32.332.443.788.738 1.095.048.046-.038.204-.049.257-.014.087.22.07.27.136.254.343.631.583.805.992.054.127.12.253.198.367.07.105.147.222.249.286.206.128.431.222.649.33.106.052.227-.184.25-.128.189.369.367.722.546 1.074.16.315.268.676.495.931.291.33.437.705.569 1.099.098.289.21.564.489.692.093.053.041.349.296.314.057-.017.122-.093.135-.204.003-.025.009-.218.047-.07l.245.886c.152.439.412.84.398 1.226l.529.88c.032.046-.027.114-.03.177-.013.276-.047.555-.02.83.014.145.054.282.027.437-.02.106-.014.262.05.332.244.262.304.585.352.914.033.234.108.435.236.518.116.269.224.456.277.656.056.221.159.393.345.501.058.035.094.205.13.29.022.057.18.033.266.145.16.362.035.626-.126.846-.054.074-.183.135-.164.207.156.536.288 1.01.432 1.48.034.116.11.22.158.315.036.092.25.029.374.045.104.012.07.276.088.412.038.296.057.597.1.893.078.53.196 1.054.174 1.595-.012.256-.026.524.043.764.103.364.096.723.055 1.083a.925.925 0 00.1.552.97.97 0 01.094.36c.02.221.018.445.024.64.003.098.22.149.254.236.209.609-.162 1.038-.39 1.449-.056.112.02.39-.004.555-.04.265-.125.521-.16.785-.042.325-.013.637.242.895.073.074.1.206.12.317.02.104-.004.215.005.321.02.266.027.534.23.751.057.06.089.181.074.265-.072.408-.06.812.01 1.218.01.07.022.156-.013.212z" fill="url(#ab)" transform="matrix(1 0 0 -1 23.977 85.836)"/><path fill="url(#ac)" d="M1.105 1.164l.003.003-.003-.003z" transform="matrix(1 0 0 -1 78.844 77.236)"/><path d="M.283 1.396c-.172-.119-.127-.19-.24-.27-.049-.04.217.029.3.085.263.181.84.698.725.616-.17-.12-.615-.315-.785-.431" fill="url(#ad)" transform="matrix(1 0 0 -1 90.777 79.369)"/><path d="M1.14 1.105l.538.128c.053.014-.41.12-.419.067-.024-.143-.177-.208-.118-.195" fill="url(#ae)" transform="matrix(1 0 0 -1 82.71 77.502)"/><path d="M1.225 1.187c-.018.029-.189-.2-.14-.179a.518.518 0 01.172.115c.036.046-.013.032-.032.064" fill="url(#af)" transform="matrix(1 0 0 -1 77.244 78.036)"/><path d="M1.049 1.05c-.016-.054.018 0 .053.04.035.038.13.051.073.065-.056.013-.093.001-.126-.106" fill="url(#ag)" transform="matrix(1 0 0 -1 82.577 78.302)"/><path d="M1.11 1.26c.012-.223.106-.15.16-.141.049-.023.16.048.091.05-.068 0-.143 0-.2.034-.057.032.227-.004.231.086.004.092.251.288.067.214-.184-.072-.251.254-.28.198-.028-.054.015-.161.002-.222-.015-.062-.077-.107-.071-.219" fill="url(#ah)" transform="matrix(1 0 0 -1 77.11 78.836)"/><path d="M.617 1.195c.035.013.015-.023.062-.008.044.017.29.117.342.14.022.009-.08.065-.113.142-.044.104-.033.222-.094.062-.105-.276-.4.082-.472-.33-.009-.048-.03.122-.105.078-.051-.031-.101-.063-.152-.092-.052-.028-.038-.06.006-.082.042-.021.464.034.505.054.021.01-.014.022.02.036" fill="url(#ai)" transform="matrix(1 0 0 -1 85.31 77.636)"/><path d="M1.016 1.09c.041 0 .095.002.128 0 .031 0 .04.093.057.105.018.013.27.126.228.138-.24.066-.454-.245-.413-.244" fill="url(#aj)" transform="matrix(1 0 0 -1 82.977 77.236)"/><path d="M1.13 1.07c.12.027.233.046.308.047.075.003.007.08-.063.098-.072.016-.366-.172-.245-.144" fill="url(#ak)" transform="matrix(1 0 0 -1 84.31 76.302)"/><path d="M1.13 1.595a.637.637 0 01-.08-.383c.001-.028-.055-.248.007-.088.042.124.06.24.096.347.036.105.09.202.125.301.118.243-.026.025-.149-.177" fill="url(#al)" transform="matrix(1 0 0 -1 106.444 64.036)"/><path d="M1.801 1.82l-.446-.328c-.04-.09-.09-.177-.15-.212-.091-.053-.154-.164-.15-.233.005-.068.053-.01.14.073.088.083.122.083.301.17.18.087.126.077.262.189s.094.105.16.242c.03.064-.034.082-.117.099" fill="url(#am)" transform="matrix(1 0 0 -1 92.444 77.636)"/><path d="M1.077 1.659c-.063-.1-.244-.25-.373-.24-.129.009-.183.066-.26.062-.076-.005-.1-.197-.196-.284-.096-.085-.12-.004-.22-.018-.102-.016.235-.13.465 0 .23.128.182.033.281.005.098-.03.103.068.218.113.115.05-.051.063.063.108.096.038.153.216.196.336.043.119-.11.019-.174-.082" fill="url(#an)" transform="matrix(1 0 0 -1 78.51 80.036)"/><path fill="#000" d="M55.352 35.568h15.766L55.352 49.145v4.568h22.67V49.18H62.258l15.764-13.576v-4.568h-22.67v4.532M38.656 40.03l-6.49-8.994H26.56l9.806 13.604v9.073H40.9V44.64l9.853-13.604h-5.604l-6.492 8.994m45.699-8.998v4.537h22.671v-4.537h-22.67m-.001 9.074v13.61h22.671v-4.538H88.892v-4.536h18.135v-4.536h-22.67m-79.82 4.536h8.37l5.239 9.074h5.238l-5.238-9.074a4.537 4.537 0 004.538-4.536V35.57a4.537 4.537 0 00-4.537-4.537H0v4.537h17.825c.178 0 .322.144.322.321v3.894a.322.322 0 01-.322.322H0v13.61h4.537v-9.074m127.517-13.605v15.767l-13.577-15.767h-4.568V53.71h4.533V37.945l13.576 15.764h4.57v-22.67h-4.534"/></g><path d="M35.864 101.82l-2.453 6.604h5.15zm9.78 12.936h-4.486l-1.372-3.365h-7.478l-1.25 3.365h-4.414l6.743-17h4.83zm16.369-17h3.63v17h-4.17v-10.619l-4.51 5.335h-.639l-4.51-5.335v10.619h-4.17v-17h3.628l5.37 6.307 5.371-6.307m10.893 13.884h2.784c4.286 0 5.566-2.89 5.566-5.384 0-2.917-1.579-5.385-5.617-5.385h-2.733zm3.285-13.884c6.244 0 9.453 3.863 9.453 8.524 0 4.886-3.11 8.476-9.93 8.476h-7.07v-17zm26.234 4.219h-8.562l-5.22-5.22h19v19l-5.218-5.218v-8.562m-8.363 8.363v-7.582l-5.418 5.415v7.585h7.581l5.419-5.418h-7.582" fill="#000"/></g></svg>